<svg width="80" height="60" viewBox="0 0 80 60" fill="none" xmlns="http://www.w3.org/2000/svg">
<path d="M10 0C7.34784 0 4.8043 1.05357 2.92893 2.92893C1.05357 4.8043 0 7.34784 0 10L0 50C0 52.6522 1.05357 55.1957 2.92893 57.0711C4.8043 58.9464 7.34784 60 10 60H70C72.6522 60 75.1957 58.9464 77.0711 57.0711C78.9464 55.1957 80 52.6522 80 50V10C80 7.34784 78.9464 4.8043 77.0711 2.92893C75.1957 1.05357 72.6522 0 70 0H10ZM75 10V35H5V10C5 8.67392 5.52678 7.40215 6.46447 6.46447C7.40215 5.52678 8.67392 5 10 5H70C71.3261 5 72.5978 5.52678 73.5355 6.46447C74.4732 7.40215 75 8.67392 75 10ZM70 55H10C8.67392 55 7.40215 54.4732 6.46447 53.5355C5.52678 52.5979 5 51.3261 5 50V45H75V50C75 51.3261 74.4732 52.5979 73.5355 53.5355C72.5978 54.4732 71.3261 55 70 55Z" fill="#EED0B3"/>
</svg>
