<svg width="100" height="100" viewBox="0 0 100 100" fill="none" xmlns="http://www.w3.org/2000/svg">
<path d="M79.1666 29.1668C79.1666 24.5835 75.4166 20.8335 70.8332 20.8335H58.3333V29.1668H70.8332V40.2085L56.3333 58.3335H41.6666V37.5002H24.9999C15.7916 37.5002 8.33325 44.9585 8.33325 54.1668V66.6668H16.6666C16.6666 73.5835 22.2499 79.1668 29.1666 79.1668C36.0833 79.1668 41.6666 73.5835 41.6666 66.6668H60.3332L79.1666 43.1252V29.1668ZM16.6666 58.3335V54.1668C16.6666 49.5835 20.4166 45.8335 24.9999 45.8335H33.3333V58.3335H16.6666ZM29.1666 70.8335C26.8749 70.8335 24.9999 68.9585 24.9999 66.6668H33.3333C33.3333 68.9585 31.4583 70.8335 29.1666 70.8335Z" fill="#EED0B3"/>
<path d="M20.8333 25H41.6666V33.3333H20.8333V25ZM79.1666 54.1667C72.2499 54.1667 66.6666 59.75 66.6666 66.6667C66.6666 73.5833 72.2499 79.1667 79.1666 79.1667C86.0833 79.1667 91.6666 73.5833 91.6666 66.6667C91.6666 59.75 86.0833 54.1667 79.1666 54.1667ZM79.1666 70.8333C76.8749 70.8333 74.9999 68.9583 74.9999 66.6667C74.9999 64.375 76.8749 62.5 79.1666 62.5C81.4583 62.5 83.3332 64.375 83.3332 66.6667C83.3332 68.9583 81.4583 70.8333 79.1666 70.8333Z" fill="#3F2014"/>
</svg>
