<svg width="30" height="30" viewBox="0 0 30 30" fill="none" xmlns="http://www.w3.org/2000/svg">
<g clip-path="url(#clip0_376_2850)">
<path d="M17.2687 18.2902L12.23 23.3289H8.89375V26.6639H5.55875V29.9989H0V24.4402L11.71 12.7302C11.3146 11.6785 11.1138 10.5637 11.1175 9.44016C11.1178 7.42631 11.762 5.46532 12.956 3.84357C14.1499 2.22183 15.8311 1.02428 17.754 0.42583C19.6769 -0.172621 21.7407 -0.140629 23.6441 0.517136C25.5475 1.1749 27.1908 2.42398 28.3339 4.08195C29.477 5.73993 30.0601 7.71994 29.998 9.73284C29.9359 11.7457 29.2319 13.6861 27.9888 15.2704C26.7457 16.8548 25.0286 18.0003 23.0883 18.5395C21.148 19.0787 19.0861 18.9835 17.2037 18.2677L17.2687 18.2889V18.2902ZM26.6838 6.65266V6.64891C26.6838 5.98936 26.4882 5.34462 26.1218 4.79621C25.7554 4.2478 25.2346 3.82035 24.6253 3.56789C24.016 3.31544 23.3455 3.24932 22.6986 3.3779C22.0517 3.50648 21.4574 3.82399 20.991 4.29027C20.5245 4.75655 20.2068 5.35067 20.078 5.99752C19.9492 6.64436 20.015 7.31488 20.2673 7.92429C20.5195 8.53371 20.9467 9.05465 21.495 9.42125C22.0433 9.78786 22.688 9.98366 23.3475 9.98391H23.3488C24.2325 9.98358 25.08 9.63262 25.7053 9.00807C26.3305 8.38352 26.6824 7.53641 26.6838 6.65266Z" fill="black" fill-opacity="0.55"/>
</g>
<defs>
<clipPath id="clip0_376_2850">
<rect width="30" height="30" fill="white"/>
</clipPath>
</defs>
</svg>
